<svg viewBox="0 0 32 32" xmlns="http://www.w3.org/2000/svg"><path d="M24 24v4H8v-4H6v4a2 2 0 0 0 2 2h16a2 2 0 0 0 2-2v-4Z" fill="#ffffff" class="fill-000000"></path><path d="m21 21-1.414-1.414L17 22.172V14h-2v8.172l-2.586-2.586L11 21l5 5 5-5zM28 4V2h-6v10h2V8h3V6h-3V4h4zM17 12h-4V2h4a3.003 3.003 0 0 1 3 3v4a3.003 3.003 0 0 1-3 3Zm-2-2h2a1.001 1.001 0 0 0 1-1V5a1.001 1.001 0 0 0-1-1h-2ZM9 2H4v10h2V9h3a2.003 2.003 0 0 0 2-2V4a2.002 2.002 0 0 0-2-2ZM6 7V4h3l.001 3Z" fill="#ffffff" class="fill-000000"></path><path data-name="<Transparent Rectangle>" d="M0 0h32v32H0z" fill="none"></path></svg>
