<?xml version="1.0" ?><svg height="384.51" viewBox="0 0 383.927 384.51" width="383.927" xmlns="http://www.w3.org/2000/svg"><g data-name="Group 38" id="Group_38" transform="translate(1394.927 -1008.39)"><path d="M-1011,1241.64c-1.279,6.081-5.272,10.33-9.591,14.41-4.632,4.376-9.032,9-13.759,13.273-2.57,2.321-3.111,4.873-2.537,8.059,1.418,7.862,2.739,15.742,4.092,23.615,1.929,11.222-4.149,20-14.946,21.47-4.015.548-7.64-.853-11.1-2.688-7.066-3.744-14.151-7.457-21.144-11.335a6.878,6.878,0,0,0-7.374-.045c-6.992,3.88-14.077,7.594-21.151,11.324-9.007,4.749-15.125,3.93-22.31-3.237-1.838-1.833-2.4-.927-3.1.715-1.137,2.659-.839,5.416-.385,8.126,2.268,13.543,4.677,27.063,6.888,40.615,1.475,9.041-1.409,16.633-8.69,22.18-7.192,5.478-15.236,6.286-23.295,2.215-12.489-6.309-24.846-12.89-37.131-19.591-4.388-2.394-8.214-2.533-12.667-.073-11.7,6.464-23.6,12.571-35.412,18.839-8.463,4.491-16.908,4.656-24.744-1.047-7.877-5.733-10.76-13.72-9.043-23.414,2.331-13.151,4.512-26.33,6.7-39.506.45-2.707.815-5.478-.227-8.144-.669-1.71-1.29-2.9-3.318-.821-6.761,6.916-13.161,7.858-21.664,3.417-7.2-3.76-14.388-7.545-21.488-11.486a7.17,7.17,0,0,0-7.715-.035c-7.317,4.067-14.684,8.055-22.156,11.827-11.229,5.669-24.159-.94-25.186-12.731-.473-5.441,1.071-10.658,1.874-15.952.748-4.936,1.649-9.849,2.534-14.763a7.458,7.458,0,0,0-2.443-7.378c-5.921-5.559-11.644-11.33-17.43-17.032-5.112-5.037-7.348-10.973-5.185-18.049,2.1-6.878,6.943-10.876,13.949-12.043,7.755-1.292,15.535-2.493,23.345-3.367,4.294-.48,6.984-2.186,8.762-6.272,3.139-7.211,6.777-14.207,10.25-21.272,3.142-6.39,8.188-9.968,15.427-10.019,7.265-.051,12.338,3.553,15.515,9.887,3.752,7.483,7.477,14.986,10.945,22.6a7.509,7.509,0,0,0,6.478,4.784c7.424.984,14.809,2.261,22.239,3.179,8.952,1.107,15.32,5.093,17.188,14.486.438,2.2,1.678,2.179,3.293,1.363a9.616,9.616,0,0,0,4.325-4.528c4.946-10.1,9.855-20.219,14.821-30.309.9-1.832,1.074-2.829-1.528-3.167a45.911,45.911,0,0,1-18.863-6.886c-1.2-.763-2.327-1.352-3.82-.636-4.532,2.173-9.4,2.364-14.3,2.222-5.489-.158-10.994.438-16.466-.467-9.4-1.553-16.483-9.057-16.559-18.524q-.288-35.806,0-71.618c.088-10.265,8.052-18.245,18.681-18.906,6.971-.433,13.994-.18,20.989-.025a18.594,18.594,0,0,1,5.816,1.31c5.481,2,5.5,2.1,9.048-2.612,7.6-10.1,16.57-18.675,27.56-25.03a29.929,29.929,0,0,1,4.635-2.449c12.942-4.684,18.162-15.318,20.114-27.627,1.575-9.929,6.075-16.679,15.513-20.084h10.5c11.364,4.278,15.4,13.023,15.063,24.523-.491,16.644-3.4,32.767-10.311,48.012-1.28,2.823-1.126,3.94,2.4,3.867,8.493-.176,16.994-.129,25.49-.009,13.443.191,22.1,10.428,19.915,23.6-.347,2.087-.1,3.107,1.924,4.024,7.48,3.387,11.306,9.6,11.341,17.534.036,7.955-3.854,14.131-11.241,17.617-1.963.926-2.435,1.893-1.995,4.014,1.522,7.339-.721,13.593-6.223,18.585-1.467,1.33-1.593,2.444-1.042,4.217,4.376,14.093-4.483,26.165-19.225,26.227q-17.994.077-35.988-.017c-2.422-.013-3.208.433-1.962,2.931,4.908,9.837,9.671,19.746,14.5,29.62a9.149,9.149,0,0,0,4.657,4.674c1.465.62,2.573.785,2.988-1.308,1.886-9.519,8.292-13.609,17.44-14.654,7.312-.836,14.572-2.12,21.874-3.063a7.817,7.817,0,0,0,6.7-5.089c3.238-7.17,6.84-14.175,10.242-21.271,3.23-6.737,8.168-11,15.97-11,7.76,0,12.786,4.091,16.014,10.9,3.478,7.337,7.17,14.573,10.632,21.917,1.173,2.489,2.774,3.941,5.577,4.3,6.186.8,12.325,2.016,18.527,2.625,10.542,1.034,19.451,4.032,21.982,15.966Zm-254.1,126.593c-.122,6.355,2.786,10.04,7.569,10.936,2.808.525,5.113-.831,7.421-2.052,11.6-6.133,23.242-12.173,34.729-18.5,8.417-4.638,16.519-4.583,24.917.027,11.716,6.432,23.571,12.613,35.392,18.853,5.874,3.1,11.875,1.355,13.765-4.01.939-2.667.507-5.44.049-8.158-2.158-12.8-4.141-25.63-6.567-38.378-1.839-9.667,1.16-17.312,8.081-23.983,9.715-9.364,19.171-19,28.819-28.433a9.428,9.428,0,0,0,2.607-10.269c-1.184-3.734-4.151-5.4-7.914-5.933-12.228-1.751-24.408-3.954-36.684-5.229-12.145-1.26-20.265-6.891-25.156-18.223s-10.783-22.254-16.152-33.4c-1.816-3.77-4.219-6.354-8.794-6.343s-6.936,2.658-8.75,6.412c-5.978,12.373-12.058,24.7-18.09,37.044-3.932,8.049-10.359,12.512-19.218,13.764-13.219,1.869-26.4,3.995-39.628,5.808-4.209.576-7.561,2.134-8.963,6.236-1.5,4.383.24,7.869,3.513,11.039,9.963,9.648,19.762,19.466,29.6,29.243a22.787,22.787,0,0,1,6.788,20.166c-.637,4.7-1.6,9.349-2.394,14.026C-1261.889,1349.089-1263.6,1359.3-1265.1,1368.233Zm102.309-181.392c7.5,0,14.995.039,22.492-.014,4.591-.033,6.837-1.913,6.912-5.572.08-3.845-2.3-6.024-6.862-6.125-3.747-.082-7.5.012-11.245-.063-3.16-.063-5.533-1.464-6.683-4.512-1.751-4.644,1.566-8.943,7.28-9.139,5.617-.194,11.246-.02,16.868-.091,4.644-.058,7.213-2.175,7.227-5.789.013-3.446-2.883-5.86-7.225-5.932-3.747-.061-7.5.095-11.244-.085-4.074-.2-6.809-2.905-6.918-6.5-.11-3.634,2.383-6.415,6.415-7.028a25.431,25.431,0,0,1,3.739-.168q10.5-.029,20.993-.017c2.046,0,4.052-.181,5.46-1.9a5.517,5.517,0,0,0,1.114-5.928,5.894,5.894,0,0,0-5.86-3.866c-7.622-.045-15.245-.017-22.867-.05-5.8-.024-8.97-2.423-8.992-6.743-.023-4.437,3.29-6.985,9.172-7.031,3.373-.027,6.747-.032,10.121-.036a5.44,5.44,0,0,0,4.853-2.322,5.507,5.507,0,0,0,.609-6,5.938,5.938,0,0,0-5.788-3.366c-10.746.013-21.493.037-32.239-.037s-15.844-8.283-11.05-17.847a108.127,108.127,0,0,0,8.112-20.919,104.42,104.42,0,0,0,3.379-31.158c-.176-4.2-2.651-7-6.174-7.22-3.641-.229-6.107,1.995-6.99,6.323-.225,1.1-.39,2.213-.619,3.313-3.474,16.723-10.848,30.375-27.677,37.428-10.475,4.39-18.438,12.29-25.492,21.032a59.309,59.309,0,0,1-7.755,8.615,3.7,3.7,0,0,0-1.473,3.185q.178,35.985.2,71.97c.012,8.958.109,9.156,8.759,11.878a35.079,35.079,0,0,0,4.36,1.068c4.983.89,9.626.969,14.328-2.029,6.05-3.857,13.209-4.379,19.331-.808,5.719,3.337,11.446,3.618,17.56,3.5C-1172.041,1186.779-1167.417,1186.849-1162.793,1186.841ZM-1360.047,1304.9c.016,3.315,2.629,4.808,5.8,3.17q11.487-5.938,22.84-12.136a17.82,17.82,0,0,1,18.206-.008c7.236,3.954,14.541,7.783,21.831,11.638,1.991,1.053,4.21,2.493,5.944-.143,1.525-2.32.184-4.2-1.572-5.9q-8.63-8.332-17.172-16.757c-5.96-5.9-8.979-12.913-7.294-21.374,2.189-10.988,9.7-17.342,21.754-18.93,7.918-1.044,15.811-2.277,23.706-3.482,1.04-.159,2.443-.149,2.592-1.658a3.044,3.044,0,0,0-2.2-3.15,15.953,15.953,0,0,0-3.642-.839c-7.408-1.1-14.8-2.318-22.236-3.184-7.607-.886-13.006-4.453-16.242-11.511-3.384-7.38-7.073-14.621-10.64-21.917-.823-1.683-1.532-3.487-3.909-3.489s-3.108,1.775-3.935,3.463c-3.631,7.405-7.359,14.765-10.837,22.241-3.143,6.755-8.334,10.256-15.649,11.18-8.046,1.017-16.051,2.355-24.076,3.537-1.779.262-3.522.576-4.225,2.55-.781,2.192.669,3.518,2.01,4.85,6.118,6.077,12.267,12.124,18.361,18.226a17.507,17.507,0,0,1,5.147,16.782c-.3,1.467-.5,2.954-.75,4.431C-1357.509,1290-1358.788,1297.5-1360.047,1304.9Zm335.242-65.93c-.253-2.037-1.726-2.9-3.788-3.207-8.146-1.2-16.267-2.6-24.436-3.616-7.291-.905-12.587-4.195-15.752-11-3.529-7.587-7.344-15.042-11.038-22.553-.838-1.7-1.636-3.422-4.006-3.348-2.176.068-2.887,1.68-3.661,3.269-3.609,7.412-7.337,14.77-10.8,22.253-3.19,6.9-8.519,10.415-15.948,11.367-8.166,1.046-16.292,2.4-24.44,3.6-2.04.3-3.894,1.133-3.824,3.342.068,2.162,2.367,1.94,3.831,2.175,5.789.931,11.621,1.6,17.412,2.516,5.521.877,11.214,1.1,16.2,4.145,12.759,7.778,14.838,24.751,4.167,35.869-5.967,6.217-12.273,12.108-18.46,18.111-1.714,1.664-2.575,3.539-1.134,5.643,1.508,2.2,3.5,1.276,5.334.3,7.393-3.923,14.821-7.783,22.154-11.817,6.226-3.425,12.3-3.472,18.536-.04,7.332,4.034,14.755,7.905,22.146,11.832,1.56.829,3.168,1.711,4.87.346,1.568-1.257,1.574-2.867,1.243-4.743-1.493-8.48-2.71-17.011-4.3-25.471a17.684,17.684,0,0,1,5.212-16.745c6.093-6.1,12.238-12.149,18.35-18.23C-1025.87,1241.919-1024.721,1240.893-1024.805,1238.97Zm-229.509-99.1c0-11.124.072-22.25-.03-33.373-.053-5.821-2.26-7.89-7.984-7.921-5.375-.03-10.75-.048-16.124.01-4.9.053-6.912,1.937-6.923,6.792q-.079,34.124-.007,68.248c.01,5,2.052,6.95,7.138,7.024,5,.073,10,.031,15,.021,6.88-.014,8.9-1.992,8.929-8.927C-1254.273,1161.122-1254.305,1150.5-1254.314,1139.872Z" data-name="Path 1070" id="Path_1070"/></g></svg>
